<svg width="64" height="64" viewBox="0 0 64 64" fill="none" xmlns="http://www.w3.org/2000/svg">
  <defs>
    <linearGradient id="fBlue" x1="10" y1="10" x2="54" y2="54" gradientUnits="userSpaceOnUse">
      <stop offset="0" stop-color="#3F86D7"/>
      <stop offset="1" stop-color="#78C3F2"/>
    </linearGradient>
  </defs>
  <rect x="2" y="2" width="60" height="60" rx="14" fill="#070F1F"/>
  <rect x="2.5" y="2.5" width="59" height="59" rx="13.5" stroke="#23344E"/>

  <circle cx="15" cy="20" r="4" fill="url(#fBlue)"/>
  <circle cx="15" cy="43" r="4" fill="url(#fBlue)"/>
  <path d="M19 20C25 20 24 27 29 27" stroke="url(#fBlue)" stroke-width="4" stroke-linecap="round"/>
  <path d="M19 43C25 43 24 36 29 36" stroke="url(#fBlue)" stroke-width="4" stroke-linecap="round"/>
  <rect x="27" y="13" width="5" height="38" rx="2.5" fill="url(#fBlue)"/>
  <path d="M29 27C35 24 40 18 50 16" stroke="url(#fBlue)" stroke-width="4" stroke-linecap="round"/>
  <path d="M29 36C35 33 40 27 50 24" stroke="url(#fBlue)" stroke-width="4" stroke-linecap="round"/>
  <path d="M29 27C34 30 39 36 50 38" stroke="url(#fBlue)" stroke-width="4" stroke-linecap="round"/>
</svg>
